#define 1f28175c21114136f254920b31a34c01fObV5K4zpIMMiA43_width 24
#define 1f28175c21114136f254920b31a34c01fObV5K4zpIMMiA43_height 24
static char 1f28175c21114136f254920b31a34c01fObV5K4zpIMMiA43_bits[] = {
  0x04, 0x00, 0x00, 0x0C, 0x00, 0x00, 0x3E, 0x00, 0x00, 0x70, 0x00, 0x00, 
  0xF0, 0x00, 0x00, 0xF4, 0x03, 0x00, 0xEC, 0x03, 0x00, 0xC0, 0x0F, 0x00, 
  0xC8, 0x1F, 0x00, 0x80, 0x3F, 0x00, 0x98, 0x7F, 0x00, 0x98, 0xFF, 0x00, 
  0x10, 0xFF, 0x01, 0x50, 0xFF, 0x03, 0x30, 0xFE, 0x03, 0x60, 0x8E, 0x02, 
  0xA0, 0x06, 0x00, 0x60, 0x03, 0x00, 0x40, 0x03, 0x00, 0xC0, 0x01, 0x00, 
  0xC0, 0x01, 0x00, 0x80, 0x03, 0x00, 0x80, 0x01, 0x00, 0x00, 0x00, 0x00, 
  };
