#define c1ad81d5a01c4bdaa4060b410c8121919XSnWy2AC2FEf8KO_width 16
#define c1ad81d5a01c4bdaa4060b410c8121919XSnWy2AC2FEf8KO_height 24
static char c1ad81d5a01c4bdaa4060b410c8121919XSnWy2AC2FEf8KO_bits[] = {
  0x00, 0x00, 0x00, 0x00, 0x00, 0x00, 0x00, 0x00, 0x06, 0x00, 0x06, 0x00, 
  0x0C, 0x00, 0x1E, 0x00, 0x7C, 0x00, 0x7E, 0x00, 0xFE, 0x00, 0xFE, 0x01, 
  0xFE, 0x03, 0xFE, 0x07, 0xFC, 0x0F, 0xFE, 0x1F, 0xFE, 0x1F, 0xFE, 0x3F, 
  0xFE, 0x4F, 0xFE, 0x0F, 0xFC, 0x07, 0xFE, 0x03, 0x14, 0x00, 0x82, 0x02, 
  };
